<svg width="65" height="65" viewBox="0 0 65 65" fill="none" xmlns="http://www.w3.org/2000/svg">
<path d="M61.3625 64.5667L50.9125 54.1167C49.4347 55.1723 47.8382 56.0827 46.1229 56.848C44.4076 57.6132 42.6264 58.207 40.7791 58.6292V53.7209C41.993 53.3514 43.1673 52.9424 44.3021 52.4938C45.4368 52.0452 46.5055 51.4514 47.5083 50.7125L34.4458 37.5709V56.3334L18.6125 40.5H5.94582V21.5H18.2958L0.87915 4.08337L4.28332 0.679199L64.7667 61.0834L61.3625 64.5667ZM58.5125 46.2L55.1083 42.7959C56.1639 41.0014 56.9423 39.1014 57.4437 37.0959C57.9451 35.0903 58.1958 33.032 58.1958 30.9209C58.1958 25.4848 56.6125 20.616 53.4458 16.3146C50.2792 12.0132 46.0569 9.28198 40.7791 8.12087V3.21253C47.3236 4.69031 52.6542 8.00212 56.7708 13.148C60.8875 18.2938 62.9458 24.2181 62.9458 30.9209C62.9458 33.6125 62.5764 36.2514 61.8375 38.8375C61.0986 41.4236 59.9903 43.8778 58.5125 46.2ZM47.9042 35.5917L40.7791 28.4667V18.175C43.2597 19.3361 45.1993 21.0778 46.5979 23.4C47.9965 25.7223 48.6958 28.2556 48.6958 31C48.6958 31.7917 48.6298 32.5702 48.4979 33.3354C48.366 34.1007 48.168 34.8528 47.9042 35.5917ZM34.4458 22.1334L26.2125 13.9L34.4458 5.6667V22.1334ZM29.6958 44.775V32.9L23.0458 26.25H10.6958V35.75H20.6708L29.6958 44.775Z" fill="#C8C8C8"/>
</svg>
