<svg width="32" height="64" viewBox="0 0 32 64" fill="none" xmlns="http://www.w3.org/2000/svg">
<path d="M3.33332 63.6667C2.4361 63.6667 1.68402 63.3632 1.07707 62.7563C0.470128 62.1493 0.166656 61.3973 0.166656 60.5V9.83337C0.166656 8.93615 0.470128 8.18407 1.07707 7.57712C1.68402 6.97018 2.4361 6.66671 3.33332 6.66671H9.66666V0.333374H22.3333V6.66671H28.6667C29.5639 6.66671 30.316 6.97018 30.9229 7.57712C31.5298 8.18407 31.8333 8.93615 31.8333 9.83337V60.5C31.8333 61.3973 31.5298 62.1493 30.9229 62.7563C30.316 63.3632 29.5639 63.6667 28.6667 63.6667H3.33332ZM16 50.6042C16.7389 50.6042 17.3854 50.3271 17.9396 49.773C18.4937 49.2188 18.7708 48.5723 18.7708 47.8334C18.7708 47.0945 18.4937 46.448 17.9396 45.8938C17.3854 45.3396 16.7389 45.0625 16 45.0625C15.2611 45.0625 14.6146 45.3396 14.0604 45.8938C13.5062 46.448 13.2292 47.0945 13.2292 47.8334C13.2292 48.5723 13.5062 49.2188 14.0604 49.773C14.6146 50.3271 15.2611 50.6042 16 50.6042ZM13.625 39.6H18.375V19.65H13.625V39.6Z" fill="#C8C8C8"/>
</svg>
