<svg width="68" height="68" viewBox="0 0 68 68" fill="none" xmlns="http://www.w3.org/2000/svg">
<path d="M67.6667 57.7792L62.9167 53.1084V16.1375H49.0625L43.2834 9.25002H28.7167L24.2833 14.475L20.9583 11.15L26.5 4.50002H45.5L51.2792 11.3875H62.9167C64.1306 11.3875 65.2257 11.8757 66.2021 12.8521C67.1785 13.8285 67.6667 14.9236 67.6667 16.1375V57.7792ZM49.1417 39.3334L33.15 23.3417C35.4195 22.9722 37.6493 23.0646 39.8396 23.6188C42.0299 24.1729 43.9431 25.2681 45.5792 26.9042C47.2153 28.5403 48.3236 30.4535 48.9042 32.6438C49.4847 34.834 49.5639 37.0639 49.1417 39.3334ZM14.3875 11.3875L19.1375 16.1375H9.08335V56.75H52.9417L0.0583496 3.86669L3.46252 0.462524L67.35 64.35L63.9459 67.7542L57.6917 61.5H9.08335C7.81668 61.5 6.70835 61.025 5.75835 60.075C4.80835 59.125 4.33335 58.0167 4.33335 56.75V16.1375C4.33335 14.8709 4.80835 13.7625 5.75835 12.8125C6.70835 11.8625 7.81668 11.3875 9.08335 11.3875H14.3875ZM26.6584 26.9834L30.0625 30.3875C29.1653 31.232 28.4924 32.1688 28.0438 33.1979C27.5952 34.2271 27.3708 35.3486 27.3708 36.5625C27.3708 38.9375 28.2153 40.9695 29.9042 42.6584C31.5931 44.3472 33.625 45.1917 36 45.1917C37.1611 45.1917 38.2695 44.9542 39.325 44.4792C40.3806 44.0042 41.3306 43.3445 42.175 42.5L45.5792 45.9042C44.3125 47.2236 42.8479 48.2264 41.1854 48.9125C39.5229 49.5986 37.7945 49.9417 36 49.9417C32.3056 49.9417 29.1521 48.6354 26.5396 46.0229C23.9271 43.4104 22.6208 40.257 22.6208 36.5625C22.6208 34.7681 22.9639 33.0396 23.65 31.3771C24.3361 29.7146 25.3389 28.25 26.6584 26.9834Z" fill="#C8C8C8"/>
</svg>
