<svg width="42" height="42" viewBox="0 0 42 42" fill="none" xmlns="http://www.w3.org/2000/svg">
<path d="M37 11.325V31.475C37 32.095 36.7675 32.6375 36.3025 33.1025C35.8375 33.5675 35.295 33.8 34.675 33.8H8.325C7.705 33.8 7.1625 33.5675 6.6975 33.1025C6.2325 32.6375 6 32.095 6 31.475V11.325C6 10.705 6.2325 10.1625 6.6975 9.6975C7.1625 9.2325 7.705 9 8.325 9H34.675C35.295 9 35.8375 9.2325 36.3025 9.6975C36.7675 10.1625 37 10.705 37 11.325ZM8.325 15.5488H34.675V11.325H8.325V15.5488ZM8.325 20.5475V31.475H34.675V20.5475H8.325ZM8.325 31.475V11.325V31.475Z" fill="#FF2626"/>
</svg>
