<svg width="72" height="60" viewBox="0 0 72 60" fill="none" xmlns="http://www.w3.org/2000/svg">
<path d="M29.6058 44.507C30.994 45.9468 33.0009 46.6197 35.6265 46.5258C38.2521 46.4319 40.1685 45.4147 41.3757 43.4742L60.9318 11.6432L30.6017 32.2066C28.7909 33.4585 27.8252 35.4617 27.7045 38.216C27.5838 40.9703 28.2175 43.0673 29.6058 44.507ZM36.034 0C39.4744 0 43.0657 0.57903 46.8079 1.73709C50.5501 2.89515 54.1415 4.88263 57.5819 7.69953L52.8739 11.1737C50.1578 9.29577 47.2455 7.90297 44.1371 6.9953C41.0286 6.08764 38.3276 5.6338 36.034 5.6338C27.5838 5.6338 20.371 8.76369 14.3955 15.0235C8.41999 21.2833 5.43225 28.8889 5.43225 37.8404C5.43225 40.6573 5.80949 43.5055 6.56397 46.385C7.31845 49.2645 8.38981 51.9249 9.77806 54.3662H62.1993C63.5272 52.1127 64.5835 49.4836 65.3681 46.4789C66.1528 43.4742 66.5451 40.5321 66.5451 37.6526C66.5451 35.0235 66.1679 32.1909 65.4134 29.1549C64.6589 26.1189 63.3159 23.3177 61.3845 20.7512L64.9154 15.8685C67.2091 19.374 68.9293 22.8951 70.0761 26.4319C71.2229 29.9687 71.8567 33.5211 71.9774 37.0892C72.0981 40.8451 71.7359 44.3818 70.8909 47.6995C70.0459 51.0172 68.8085 54.0845 67.1789 56.9014C66.4546 58.3412 65.685 59.2175 64.8702 59.5305C64.0553 59.8435 63.0443 60 61.8372 60H10.1402C9.11412 60 8.10311 59.734 7.1072 59.2019C6.11129 58.6698 5.3719 57.903 4.88903 56.9014C3.31971 53.8967 2.11254 50.8451 1.26753 47.7465C0.422508 44.6479 0 41.3459 0 37.8404C0 32.6448 0.950644 27.7465 2.85193 23.1455C4.75322 18.5446 7.33354 14.5383 10.5929 11.1268C13.8522 7.71518 17.6699 5.00782 22.0459 3.00469C26.4219 1.00156 31.0846 0 36.034 0Z" fill="#C8C8C8"/>
</svg>
