<svg width="67" height="67" viewBox="0 0 67 67" fill="none" xmlns="http://www.w3.org/2000/svg">
<path d="M52.3083 42.4208L48.9042 39.0166C50.0125 37.6444 50.8306 36.1006 51.3583 34.3854C51.8861 32.6701 52.15 30.9152 52.15 29.1208H56.9C56.9 31.5486 56.5042 33.8972 55.7125 36.1666C54.9208 38.4361 53.7861 40.5208 52.3083 42.4208ZM42.175 32.2875L37.9792 28.1708V9.32912C37.9792 8.4319 37.6625 7.66662 37.0292 7.03328C36.3958 6.39995 35.6306 6.08328 34.7333 6.08328C33.8361 6.08328 33.0708 6.39995 32.4375 7.03328C31.8042 7.66662 31.4875 8.4319 31.4875 9.32912V21.6L26.7375 16.85V9.32912C26.7375 7.11245 27.516 5.22565 29.0729 3.6687C30.6299 2.11176 32.5167 1.33328 34.7333 1.33328C36.95 1.33328 38.8368 2.11176 40.3938 3.6687C41.9507 5.22565 42.7292 7.11245 42.7292 9.32912V29.1208C42.7292 29.543 42.6896 30.0708 42.6104 30.7041C42.5313 31.3375 42.3861 31.8652 42.175 32.2875ZM32.3583 61.5V50.7333C26.7639 50.1527 22.0667 47.8041 18.2667 43.6875C14.4667 39.5708 12.5667 34.7152 12.5667 29.1208H17.3167C17.3167 33.9236 19.0188 37.9611 22.4229 41.2333C25.8271 44.5055 29.9306 46.1416 34.7333 46.1416C36.7389 46.1416 38.6653 45.8118 40.5125 45.152C42.3597 44.4923 44.0486 43.5819 45.5792 42.4208L48.9833 45.825C47.3472 47.1972 45.5264 48.2923 43.5208 49.1104C41.5153 49.9284 39.3778 50.4694 37.1083 50.7333V61.5H32.3583ZM63.7875 66.6458L0.850006 3.70828L3.85834 0.699951L66.7958 63.6375L63.7875 66.6458Z" fill="#C8C8C8"/>
</svg>
