<svg width="42" height="42" viewBox="0 0 42 42" fill="none" xmlns="http://www.w3.org/2000/svg">
<path d="M10.3393 37.4943C9.95238 37.4943 9.63244 37.3678 9.37946 37.1149C9.12649 36.8619 9 36.5419 9 36.155C9 35.7681 9.12649 35.4482 9.37946 35.1952C9.63244 34.9422 9.95238 34.8157 10.3393 34.8157H18.2857V30.1729H17.6161C15.2054 30.1729 13.1667 29.3396 11.5 27.6729C9.83333 26.0062 9 23.9675 9 21.5568C9 19.7413 9.49851 18.097 10.4955 16.6238C11.4926 15.1506 12.8839 14.1015 14.6696 13.4765C14.7887 12.3455 15.317 11.3931 16.2545 10.6193C17.192 9.84551 18.256 9.50325 19.4464 9.59253L18.9554 8.2086C18.8065 7.85146 18.814 7.5092 18.9777 7.18182C19.1414 6.85444 19.4018 6.63122 19.7589 6.51218L20.3393 6.28896L20.2946 6.11039C20.1756 5.69372 20.183 5.29194 20.317 4.90503C20.4509 4.51813 20.7262 4.25027 21.1429 4.10146C21.5595 3.95265 21.9539 3.96753 22.3259 4.1461C22.6979 4.32468 22.9881 4.62229 23.1964 5.03896L23.2857 5.21753L23.8214 5.03896C24.1786 4.89015 24.5134 4.89759 24.8259 5.06128C25.1384 5.22497 25.369 5.47051 25.5179 5.79789L29.625 16.4675C29.7738 16.8247 29.7664 17.1669 29.6027 17.4943C29.439 17.8217 29.1786 18.0598 28.8214 18.2086L28.1964 18.4318L28.2857 18.6104C28.4643 18.9675 28.4717 19.3396 28.308 19.7265C28.1443 20.1134 27.869 20.3812 27.4821 20.53C27.0655 20.6788 26.6711 20.6714 26.2991 20.5077C25.9271 20.344 25.6369 20.0538 25.4286 19.6372L25.3393 19.4586L24.6696 19.6818C24.3125 19.8306 23.9702 19.8232 23.6429 19.6595C23.3155 19.4958 23.0923 19.2503 22.9732 18.9229L22.3036 17.1372C21.8571 17.6431 21.3289 18.0077 20.7188 18.2309C20.1086 18.4541 19.4613 18.5509 18.7768 18.5211C18.0625 18.4913 17.3557 18.2532 16.6563 17.8068C15.9568 17.3604 15.4286 16.7949 15.0714 16.1104C13.9405 16.6163 13.0923 17.3678 12.5268 18.3649C11.9613 19.3619 11.6786 20.4259 11.6786 21.5568C11.6786 23.2235 12.2515 24.6297 13.3973 25.7756C14.5432 26.9214 15.9494 27.4943 17.6161 27.4943H31.7679C32.1548 27.4943 32.4747 27.6208 32.7277 27.8738C32.9807 28.1268 33.1071 28.4467 33.1071 28.8336C33.1071 29.2205 32.9807 29.5404 32.7277 29.7934C32.4747 30.0464 32.1548 30.1729 31.7679 30.1729H22.75V34.8157H32.6607C33.0476 34.8157 33.3676 34.9422 33.6205 35.1952C33.8735 35.4482 34 35.7681 34 36.155C34 36.5419 33.8735 36.8619 33.6205 37.1149C33.3676 37.3678 33.0476 37.4943 32.6607 37.4943H10.3393ZM24.8929 17.3157L27.2589 16.4675L23.6875 7.2711L21.3214 8.11932L24.8929 17.3157ZM19.0893 16.289C19.7143 16.289 20.2426 16.0732 20.6741 15.6416C21.1057 15.2101 21.3214 14.6818 21.3214 14.0568C21.3214 13.4318 21.1057 12.9035 20.6741 12.472C20.2426 12.0404 19.7143 11.8247 19.0893 11.8247C18.4643 11.8247 17.936 12.0404 17.5045 12.472C17.0729 12.9035 16.8571 13.4318 16.8571 14.0568C16.8571 14.6818 17.0729 15.2101 17.5045 15.6416C17.936 16.0732 18.4643 16.289 19.0893 16.289Z" fill="#FF2626"/>
</svg>
