<svg width="52" height="64" viewBox="0 0 52 64" fill="none" xmlns="http://www.w3.org/2000/svg">
<path d="M25.9209 53.5334C26.7653 53.5334 27.4118 53.3882 27.8604 53.098C28.309 52.8077 28.5334 52.3723 28.5334 51.7917C28.5334 51.2112 28.309 50.7625 27.8604 50.4459C27.4118 50.1292 26.7389 49.9709 25.8417 49.9709C23.625 49.9709 21.3688 49.2716 19.0729 47.873C16.7771 46.4743 15.3125 44.007 14.6792 40.4709C14.5736 39.9959 14.3361 39.6132 13.9667 39.323C13.5972 39.0327 13.2014 38.8875 12.7792 38.8875C12.1986 38.8875 11.75 39.1118 11.4334 39.5605C11.1167 40.0091 11.0111 40.4709 11.1167 40.9459C11.9084 45.3792 13.782 48.5855 16.7375 50.5646C19.6931 52.5438 22.7542 53.5334 25.9209 53.5334ZM26 63.6667C18.7695 63.6667 12.7396 61.1861 7.91044 56.225C3.08127 51.2639 0.666687 45.0889 0.666687 37.7C0.666687 32.4223 2.7646 26.6827 6.96044 20.4813C11.1563 14.2799 17.5028 7.56393 26 0.333374C34.4972 7.56393 40.8438 14.2799 45.0396 20.4813C49.2354 26.6827 51.3334 32.4223 51.3334 37.7C51.3334 45.0889 48.9188 51.2639 44.0896 56.225C39.2604 61.1861 33.2306 63.6667 26 63.6667ZM26 58.9167C31.9111 58.9167 36.8195 56.898 40.725 52.8605C44.6306 48.823 46.5834 43.7695 46.5834 37.7C46.5834 33.5306 44.8285 28.7938 41.3188 23.4896C37.809 18.1855 32.7028 12.5778 26 6.66671C19.2972 12.5778 14.191 18.1855 10.6813 23.4896C7.17155 28.7938 5.41669 33.5306 5.41669 37.7C5.41669 43.7695 7.36946 48.823 11.275 52.8605C15.1806 56.898 20.0889 58.9167 26 58.9167Z" fill="#C8C8C8"/>
</svg>
