<svg width="42" height="42" viewBox="0 0 42 42" fill="none" xmlns="http://www.w3.org/2000/svg">
<path d="M26.04 27.84C26.28 28.08 26.56 28.2 26.88 28.2C27.2 28.2 27.4933 28.0667 27.76 27.8C28.0267 27.5333 28.1667 27.2267 28.18 26.88C28.1933 26.5333 28.0667 26.24 27.8 26L22.32 20.52V13.64C22.32 13.32 22.2067 13.0467 21.98 12.82C21.7533 12.5933 21.4667 12.48 21.12 12.48C20.7733 12.48 20.4867 12.5933 20.26 12.82C20.0333 13.0467 19.92 13.3333 19.92 13.68V21C19.92 21.16 19.9467 21.3067 20 21.44C20.0533 21.5733 20.1333 21.7067 20.24 21.84L26.04 27.84ZM21 37C18.8133 37 16.7467 36.58 14.8 35.74C12.8533 34.9 11.1533 33.7533 9.7 32.3C8.24667 30.8467 7.1 29.1467 6.26 27.2C5.42 25.2533 5 23.1867 5 21C5 18.8133 5.42 16.7467 6.26 14.8C7.1 12.8533 8.24667 11.1533 9.7 9.7C11.1533 8.24667 12.8533 7.1 14.8 6.26C16.7467 5.42 18.8133 5 21 5C23.1867 5 25.2533 5.42 27.2 6.26C29.1467 7.1 30.8467 8.24667 32.3 9.7C33.7533 11.1533 34.9 12.8533 35.74 14.8C36.58 16.7467 37 18.8133 37 21C37 23.1867 36.58 25.2533 35.74 27.2C34.9 29.1467 33.7533 30.8467 32.3 32.3C30.8467 33.7533 29.1467 34.9 27.2 35.74C25.2533 36.58 23.1867 37 21 37ZM21 34.6C24.7333 34.6 27.9333 33.2667 30.6 30.6C33.2667 27.9333 34.6 24.7333 34.6 21C34.6 17.2667 33.2667 14.0667 30.6 11.4C27.9333 8.73333 24.7333 7.4 21 7.4C17.2667 7.4 14.0667 8.73333 11.4 11.4C8.73333 14.0667 7.4 17.2667 7.4 21C7.4 24.7333 8.73333 27.9333 11.4 30.6C14.0667 33.2667 17.2667 34.6 21 34.6Z" fill="#FF2626"/>
</svg>
