<svg width="46" height="70" viewBox="0 0 46 70" fill="none" xmlns="http://www.w3.org/2000/svg">
<path d="M25.6125 55.5833V51.625H34.0833V43.6291H38.0417V55.5833H25.6125ZM7.95834 27.1625V14.4166H20.625V18.375H11.9167V27.1625H7.95834ZM5.58334 69.8333C4.31668 69.8333 3.20834 69.3583 2.25834 68.4083C1.30834 67.4583 0.833344 66.35 0.833344 65.0833V4.91663C0.833344 3.64996 1.30834 2.54163 2.25834 1.59163C3.20834 0.641626 4.31668 0.166626 5.58334 0.166626H40.4167C41.6833 0.166626 42.7917 0.641626 43.7417 1.59163C44.6917 2.54163 45.1667 3.64996 45.1667 4.91663V65.0833C45.1667 66.35 44.6917 67.4583 43.7417 68.4083C42.7917 69.3583 41.6833 69.8333 40.4167 69.8333H5.58334ZM5.58334 62.7083V65.0833H40.4167V62.7083H5.58334ZM5.58334 57.9583H40.4167V12.0416H5.58334V57.9583ZM5.58334 7.29163H40.4167V4.91663H5.58334V7.29163ZM5.58334 7.29163V4.91663V7.29163ZM5.58334 62.7083V65.0833V62.7083Z" fill="#C8C8C8"/>
</svg>
