<svg width="566" height="170" viewBox="0 0 566 170" fill="none" xmlns="http://www.w3.org/2000/svg">
<g opacity="0.4">
<path d="M26 113C22.5867 113 19.6267 112.467 17.12 111.4C14.6667 110.28 12.7733 108.573 11.44 106.28C10.1067 103.933 9.44 100.92 9.44 97.24V81.88H3.2C2.61333 81.88 2.10667 81.6933 1.68 81.32C1.30667 80.9467 1.12 80.4667 1.12 79.88V73.4C1.12 72.8133 1.30667 72.3333 1.68 71.96C2.10667 71.5867 2.61333 71.4 3.2 71.4H9.44V58.2C9.44 57.6133 9.62667 57.1333 10 56.76C10.4267 56.3867 10.9067 56.2 11.44 56.2H20.72C21.3067 56.2 21.7867 56.3867 22.16 56.76C22.5333 57.1333 22.72 57.6133 22.72 58.2V71.4H32.72C33.3067 71.4 33.7867 71.5867 34.16 71.96C34.5333 72.3333 34.72 72.8133 34.72 73.4V79.88C34.72 80.4667 34.5333 80.9467 34.16 81.32C33.7867 81.6933 33.3067 81.88 32.72 81.88H22.72V96.12C22.72 97.9333 23.0667 99.3733 23.76 100.44C24.4533 101.507 25.6267 102.04 27.28 102.04H33.44C34.0267 102.04 34.5067 102.227 34.88 102.6C35.2533 102.973 35.44 103.453 35.44 104.04V111C35.44 111.587 35.2533 112.067 34.88 112.44C34.5067 112.813 34.0267 113 33.44 113H26ZM44.0638 113C43.4771 113 42.9971 112.813 42.6237 112.44C42.2504 112.067 42.0638 111.587 42.0638 111V73.4C42.0638 72.8667 42.2504 72.4133 42.6237 72.04C42.9971 71.6133 43.4771 71.4 44.0638 71.4H53.2638C53.8504 71.4 54.3304 71.6133 54.7038 72.04C55.0771 72.4133 55.2638 72.8667 55.2638 73.4V76.6C56.7038 74.9467 58.4104 73.6667 60.3838 72.76C62.4104 71.8533 64.6771 71.4 67.1838 71.4H70.7038C71.2371 71.4 71.6904 71.5867 72.0638 71.96C72.4904 72.3333 72.7038 72.8133 72.7038 73.4V81.64C72.7038 82.1733 72.4904 82.6533 72.0638 83.08C71.6904 83.4533 71.2371 83.64 70.7038 83.64H62.9438C60.7571 83.64 59.0504 84.2533 57.8238 85.48C56.6504 86.6533 56.0638 88.3333 56.0638 90.52V111C56.0638 111.587 55.8504 112.067 55.4238 112.44C55.0504 112.813 54.5704 113 53.9838 113H44.0638ZM90.1688 113.8C87.2888 113.8 84.7021 113.267 82.4088 112.2C80.1688 111.08 78.3821 109.587 77.0488 107.72C75.7154 105.853 75.0488 103.747 75.0488 101.4C75.0488 97.6133 76.5954 94.6267 79.6888 92.44C82.7821 90.2 86.8888 88.68 92.0088 87.88L102.009 86.36V85.24C102.009 83.32 101.609 81.8533 100.809 80.84C100.009 79.8267 98.5421 79.32 96.4088 79.32C94.9154 79.32 93.6888 79.6133 92.7288 80.2C91.8221 80.7867 91.1021 81.5867 90.5688 82.6C90.0888 83.2933 89.4221 83.64 88.5688 83.64H79.6088C79.0221 83.64 78.5688 83.48 78.2487 83.16C77.9288 82.7867 77.7954 82.36 77.8488 81.88C77.8488 80.92 78.1954 79.8267 78.8888 78.6C79.6354 77.32 80.7554 76.0667 82.2488 74.84C83.7421 73.6133 85.6621 72.6 88.0088 71.8C90.3554 71 93.1821 70.6 96.4887 70.6C99.9554 70.6 102.915 71 105.369 71.8C107.822 72.6 109.795 73.72 111.289 75.16C112.835 76.6 113.982 78.3067 114.729 80.28C115.475 82.2 115.849 84.3333 115.849 86.68V111C115.849 111.587 115.635 112.067 115.209 112.44C114.835 112.813 114.382 113 113.849 113H104.569C103.982 113 103.502 112.813 103.129 112.44C102.755 112.067 102.569 111.587 102.569 111V108.2C101.875 109.213 100.942 110.147 99.7688 111C98.5954 111.853 97.2088 112.52 95.6088 113C94.0621 113.533 92.2488 113.8 90.1688 113.8ZM93.9288 104.68C95.4754 104.68 96.8621 104.36 98.0888 103.72C99.3688 103.027 100.355 101.987 101.049 100.6C101.795 99.16 102.169 97.3733 102.169 95.24V94.12L95.3688 95.32C92.8621 95.7467 91.0221 96.4133 89.8488 97.32C88.7288 98.1733 88.1688 99.1867 88.1688 100.36C88.1688 101.267 88.4354 102.04 88.9688 102.68C89.5021 103.32 90.1954 103.827 91.0488 104.2C91.9021 104.52 92.8621 104.68 93.9288 104.68ZM126.876 113C126.29 113 125.81 112.813 125.436 112.44C125.063 112.067 124.876 111.587 124.876 111V73.4C124.876 72.8133 125.063 72.3333 125.436 71.96C125.81 71.5867 126.29 71.4 126.876 71.4H136.076C136.663 71.4 137.143 71.5867 137.516 71.96C137.89 72.3333 138.076 72.8133 138.076 73.4V76.44C139.463 74.7867 141.276 73.4 143.516 72.28C145.756 71.16 148.396 70.6 151.436 70.6C154.53 70.6 157.25 71.2933 159.596 72.68C161.996 74.0667 163.863 76.12 165.196 78.84C166.583 81.5067 167.276 84.7867 167.276 88.68V111C167.276 111.587 167.063 112.067 166.636 112.44C166.263 112.813 165.81 113 165.276 113H155.196C154.663 113 154.183 112.813 153.756 112.44C153.383 112.067 153.196 111.587 153.196 111V89.16C153.196 86.6533 152.583 84.7333 151.356 83.4C150.183 82.0133 148.423 81.32 146.076 81.32C143.89 81.32 142.13 82.0133 140.796 83.4C139.516 84.7333 138.876 86.6533 138.876 89.16V111C138.876 111.587 138.663 112.067 138.236 112.44C137.863 112.813 137.41 113 136.876 113H126.876ZM193.324 113.8C189.858 113.8 186.898 113.427 184.444 112.68C182.044 111.88 180.071 110.92 178.524 109.8C177.031 108.68 175.911 107.533 175.164 106.36C174.418 105.133 174.018 104.093 173.964 103.24C173.911 102.653 174.098 102.173 174.524 101.8C174.951 101.373 175.404 101.16 175.884 101.16H185.004C185.164 101.16 185.298 101.187 185.404 101.24C185.511 101.293 185.671 101.4 185.884 101.56C186.578 101.933 187.271 102.413 187.964 103C188.658 103.533 189.458 104.013 190.364 104.44C191.271 104.867 192.364 105.08 193.644 105.08C195.138 105.08 196.391 104.787 197.404 104.2C198.418 103.613 198.924 102.733 198.924 101.56C198.924 100.707 198.684 100.013 198.204 99.48C197.724 98.8933 196.738 98.3333 195.244 97.8C193.804 97.2667 191.618 96.7333 188.684 96.2C185.911 95.56 183.484 94.7333 181.404 93.72C179.324 92.6533 177.724 91.2933 176.604 89.64C175.484 87.9333 174.924 85.88 174.924 83.48C174.924 81.3467 175.618 79.2933 177.004 77.32C178.391 75.3467 180.418 73.7467 183.084 72.52C185.751 71.24 189.031 70.6 192.924 70.6C196.018 70.6 198.684 70.9733 200.924 71.72C203.218 72.4133 205.138 73.32 206.684 74.44C208.284 75.56 209.484 76.7067 210.284 77.88C211.084 79.0533 211.511 80.12 211.564 81.08C211.618 81.6133 211.458 82.0933 211.084 82.52C210.711 82.8933 210.284 83.08 209.804 83.08H201.484C201.271 83.08 201.058 83.0533 200.844 83C200.631 82.8933 200.444 82.7867 200.284 82.68C199.644 82.36 199.004 81.9333 198.364 81.4C197.724 80.8667 196.978 80.3867 196.124 79.96C195.271 79.5333 194.204 79.32 192.924 79.32C191.484 79.32 190.364 79.64 189.564 80.28C188.764 80.92 188.364 81.7467 188.364 82.76C188.364 83.4533 188.578 84.0933 189.004 84.68C189.484 85.2667 190.418 85.8 191.804 86.28C193.244 86.76 195.458 87.2933 198.444 87.88C202.124 88.4667 205.058 89.4267 207.244 90.76C209.431 92.04 210.978 93.56 211.884 95.32C212.791 97.0267 213.244 98.84 213.244 100.76C213.244 103.32 212.471 105.587 210.924 107.56C209.431 109.533 207.191 111.08 204.204 112.2C201.218 113.267 197.591 113.8 193.324 113.8ZM222.423 128.2C221.836 128.2 221.356 128.013 220.983 127.64C220.61 127.267 220.423 126.787 220.423 126.2V73.4C220.423 72.8133 220.61 72.3333 220.983 71.96C221.356 71.5867 221.836 71.4 222.423 71.4H231.463C231.996 71.4 232.45 71.5867 232.823 71.96C233.25 72.3333 233.463 72.8133 233.463 73.4V76.36C234.69 74.7067 236.316 73.3467 238.343 72.28C240.37 71.16 242.876 70.6 245.863 70.6C248.53 70.6 250.876 71.0267 252.903 71.88C254.93 72.68 256.663 73.88 258.103 75.48C259.543 77.08 260.663 79.0267 261.463 81.32C262.316 83.6133 262.796 86.2533 262.903 89.24C262.956 90.3067 262.983 91.2933 262.983 92.2C262.983 93.1067 262.956 94.0933 262.903 95.16C262.796 98.04 262.343 100.627 261.543 102.92C260.743 105.213 259.623 107.16 258.183 108.76C256.743 110.36 254.983 111.613 252.903 112.52C250.876 113.373 248.53 113.8 245.863 113.8C243.25 113.8 240.956 113.347 238.983 112.44C237.063 111.48 235.463 110.147 234.183 108.44V126.2C234.183 126.787 233.996 127.267 233.623 127.64C233.25 128.013 232.77 128.2 232.183 128.2H222.423ZM241.543 103.08C243.356 103.08 244.77 102.707 245.783 101.96C246.796 101.213 247.516 100.2 247.943 98.92C248.423 97.64 248.716 96.2267 248.823 94.68C248.93 93.0267 248.93 91.3733 248.823 89.72C248.716 88.1733 248.423 86.76 247.943 85.48C247.516 84.2 246.796 83.1867 245.783 82.44C244.77 81.6933 243.356 81.32 241.543 81.32C239.783 81.32 238.37 81.72 237.303 82.52C236.236 83.2667 235.463 84.2533 234.983 85.48C234.503 86.7067 234.236 88.04 234.183 89.48C234.13 90.4933 234.103 91.48 234.103 92.44C234.103 93.4 234.13 94.4133 234.183 95.48C234.236 96.8133 234.53 98.0667 235.063 99.24C235.596 100.36 236.396 101.293 237.463 102.04C238.53 102.733 239.89 103.08 241.543 103.08ZM283.372 113.8C280.492 113.8 277.905 113.267 275.612 112.2C273.372 111.08 271.585 109.587 270.252 107.72C268.919 105.853 268.252 103.747 268.252 101.4C268.252 97.6133 269.799 94.6267 272.892 92.44C275.985 90.2 280.092 88.68 285.212 87.88L295.212 86.36V85.24C295.212 83.32 294.812 81.8533 294.012 80.84C293.212 79.8267 291.745 79.32 289.612 79.32C288.119 79.32 286.892 79.6133 285.932 80.2C285.025 80.7867 284.305 81.5867 283.772 82.6C283.292 83.2933 282.625 83.64 281.772 83.64H272.812C272.225 83.64 271.772 83.48 271.452 83.16C271.132 82.7867 270.999 82.36 271.052 81.88C271.052 80.92 271.399 79.8267 272.092 78.6C272.839 77.32 273.959 76.0667 275.452 74.84C276.945 73.6133 278.865 72.6 281.212 71.8C283.559 71 286.385 70.6 289.692 70.6C293.159 70.6 296.119 71 298.572 71.8C301.025 72.6 302.999 73.72 304.492 75.16C306.039 76.6 307.185 78.3067 307.932 80.28C308.679 82.2 309.052 84.3333 309.052 86.68V111C309.052 111.587 308.839 112.067 308.412 112.44C308.039 112.813 307.585 113 307.052 113H297.772C297.185 113 296.705 112.813 296.332 112.44C295.959 112.067 295.772 111.587 295.772 111V108.2C295.079 109.213 294.145 110.147 292.972 111C291.799 111.853 290.412 112.52 288.812 113C287.265 113.533 285.452 113.8 283.372 113.8ZM287.132 104.68C288.679 104.68 290.065 104.36 291.292 103.72C292.572 103.027 293.559 101.987 294.252 100.6C294.999 99.16 295.372 97.3733 295.372 95.24V94.12L288.572 95.32C286.065 95.7467 284.225 96.4133 283.052 97.32C281.932 98.1733 281.372 99.1867 281.372 100.36C281.372 101.267 281.639 102.04 282.172 102.68C282.705 103.32 283.399 103.827 284.252 104.2C285.105 104.52 286.065 104.68 287.132 104.68ZM320.079 113C319.493 113 319.013 112.813 318.639 112.44C318.266 112.067 318.079 111.587 318.079 111V73.4C318.079 72.8667 318.266 72.4133 318.639 72.04C319.013 71.6133 319.493 71.4 320.079 71.4H329.279C329.866 71.4 330.346 71.6133 330.719 72.04C331.093 72.4133 331.279 72.8667 331.279 73.4V76.6C332.719 74.9467 334.426 73.6667 336.399 72.76C338.426 71.8533 340.693 71.4 343.199 71.4H346.719C347.253 71.4 347.706 71.5867 348.079 71.96C348.506 72.3333 348.719 72.8133 348.719 73.4V81.64C348.719 82.1733 348.506 82.6533 348.079 83.08C347.706 83.4533 347.253 83.64 346.719 83.64H338.959C336.773 83.64 335.066 84.2533 333.839 85.48C332.666 86.6533 332.079 88.3333 332.079 90.52V111C332.079 111.587 331.866 112.067 331.439 112.44C331.066 112.813 330.586 113 329.999 113H320.079ZM373.295 113.8C367.002 113.8 361.988 112.093 358.255 108.68C354.522 105.267 352.575 100.2 352.415 93.48C352.415 93.1067 352.415 92.6267 352.415 92.04C352.415 91.4533 352.415 91 352.415 90.68C352.575 86.4667 353.508 82.8667 355.215 79.88C356.975 76.84 359.375 74.5467 362.415 73C365.508 71.4 369.108 70.6 373.215 70.6C377.908 70.6 381.775 71.5333 384.815 73.4C387.908 75.2667 390.228 77.8 391.775 81C393.322 84.2 394.095 87.8533 394.095 91.96V93.88C394.095 94.4667 393.882 94.9467 393.455 95.32C393.082 95.6933 392.628 95.88 392.095 95.88H366.495C366.495 95.9333 366.495 96.0133 366.495 96.12C366.495 96.2267 366.495 96.3333 366.495 96.44C366.548 97.9867 366.815 99.4 367.295 100.68C367.775 101.96 368.522 102.973 369.535 103.72C370.548 104.467 371.775 104.84 373.215 104.84C374.282 104.84 375.162 104.68 375.855 104.36C376.602 103.987 377.215 103.587 377.695 103.16C378.175 102.68 378.548 102.28 378.815 101.96C379.295 101.427 379.668 101.107 379.935 101C380.255 100.84 380.735 100.76 381.375 100.76H391.295C391.828 100.76 392.255 100.92 392.575 101.24C392.948 101.507 393.108 101.907 393.055 102.44C393.002 103.347 392.548 104.44 391.695 105.72C390.842 107 389.588 108.28 387.935 109.56C386.335 110.787 384.308 111.8 381.855 112.6C379.402 113.4 376.548 113.8 373.295 113.8ZM366.495 87.96H380.015V87.8C380.015 86.0933 379.748 84.6 379.215 83.32C378.735 82.04 377.962 81.0533 376.895 80.36C375.882 79.6667 374.655 79.32 373.215 79.32C371.775 79.32 370.548 79.6667 369.535 80.36C368.575 81.0533 367.828 82.04 367.295 83.32C366.762 84.6 366.495 86.0933 366.495 87.8V87.96ZM359.695 65.4C358.895 65.4 358.495 65.0267 358.495 64.28C358.495 63.8533 358.682 63.4267 359.055 63L367.295 54.36C367.828 53.7733 368.282 53.4 368.655 53.24C369.082 53.08 369.562 53 370.095 53H376.415C376.895 53 377.348 53.08 377.775 53.24C378.202 53.4 378.682 53.7733 379.215 54.36L387.375 63C387.802 63.4267 388.015 63.8533 388.015 64.28C388.015 65.0267 387.615 65.4 386.815 65.4H382.975C382.548 65.4 382.095 65.3733 381.615 65.32C381.135 65.2133 380.682 65.0533 380.255 64.84L373.215 60.92L366.255 64.84C365.828 65.0533 365.375 65.2133 364.895 65.32C364.415 65.3733 363.935 65.4 363.455 65.4H359.695ZM403.595 113C403.008 113 402.528 112.813 402.155 112.44C401.782 112.067 401.595 111.587 401.595 111V73.4C401.595 72.8133 401.782 72.3333 402.155 71.96C402.528 71.5867 403.008 71.4 403.595 71.4H412.795C413.382 71.4 413.862 71.5867 414.235 71.96C414.608 72.3333 414.795 72.8133 414.795 73.4V76.44C416.182 74.7867 417.995 73.4 420.235 72.28C422.475 71.16 425.115 70.6 428.155 70.6C431.248 70.6 433.968 71.2933 436.315 72.68C438.715 74.0667 440.582 76.12 441.915 78.84C443.302 81.5067 443.995 84.7867 443.995 88.68V111C443.995 111.587 443.782 112.067 443.355 112.44C442.982 112.813 442.528 113 441.995 113H431.915C431.382 113 430.902 112.813 430.475 112.44C430.102 112.067 429.915 111.587 429.915 111V89.16C429.915 86.6533 429.302 84.7333 428.075 83.4C426.902 82.0133 425.142 81.32 422.795 81.32C420.608 81.32 418.848 82.0133 417.515 83.4C416.235 84.7333 415.595 86.6533 415.595 89.16V111C415.595 111.587 415.382 112.067 414.955 112.44C414.582 112.813 414.128 113 413.595 113H403.595ZM472.043 113.8C468.096 113.8 464.603 113.08 461.563 111.64C458.523 110.2 456.096 108.12 454.283 105.4C452.523 102.627 451.563 99.32 451.403 95.48C451.35 94.6267 451.323 93.56 451.323 92.28C451.323 90.9467 451.35 89.8533 451.403 89C451.563 85.1067 452.523 81.8 454.283 79.08C456.043 76.3067 458.443 74.2 461.483 72.76C464.576 71.32 468.096 70.6 472.043 70.6C475.723 70.6 478.87 71.1333 481.483 72.2C484.096 73.2133 486.23 74.4933 487.883 76.04C489.536 77.5867 490.763 79.1867 491.563 80.84C492.416 82.44 492.87 83.8533 492.923 85.08C492.976 85.6133 492.79 86.0933 492.363 86.52C491.936 86.8933 491.456 87.08 490.923 87.08H480.763C480.176 87.08 479.723 86.9467 479.403 86.68C479.083 86.4133 478.79 86.0133 478.523 85.48C477.883 83.8267 477.056 82.6533 476.043 81.96C475.083 81.2667 473.83 80.92 472.283 80.92C470.15 80.92 468.496 81.6133 467.323 83C466.203 84.3867 465.59 86.52 465.483 89.4C465.43 91.5333 465.43 93.4267 465.483 95.08C465.59 98.0133 466.203 100.147 467.323 101.48C468.496 102.813 470.15 103.48 472.283 103.48C473.936 103.48 475.243 103.133 476.203 102.44C477.163 101.747 477.936 100.573 478.523 98.92C478.79 98.3867 479.083 97.9867 479.403 97.72C479.723 97.4533 480.176 97.32 480.763 97.32H490.923C491.456 97.32 491.936 97.5333 492.363 97.96C492.79 98.3333 492.976 98.7867 492.923 99.32C492.87 100.227 492.603 101.293 492.123 102.52C491.643 103.693 490.896 104.947 489.883 106.28C488.87 107.613 487.536 108.867 485.883 110.04C484.283 111.16 482.336 112.067 480.043 112.76C477.75 113.453 475.083 113.8 472.043 113.8ZM502.111 113C501.524 113 501.044 112.813 500.671 112.44C500.297 112.067 500.111 111.587 500.111 111V73.4C500.111 72.8133 500.297 72.3333 500.671 71.96C501.044 71.5867 501.524 71.4 502.111 71.4H511.551C512.084 71.4 512.537 71.5867 512.911 71.96C513.337 72.3333 513.551 72.8133 513.551 73.4V111C513.551 111.587 513.337 112.067 512.911 112.44C512.537 112.813 512.084 113 511.551 113H502.111ZM502.031 65.4C501.444 65.4 500.964 65.2133 500.591 64.84C500.217 64.4667 500.031 63.9867 500.031 63.4V56.28C500.031 55.6933 500.217 55.2133 500.591 54.84C500.964 54.4133 501.444 54.2 502.031 54.2H511.551C512.137 54.2 512.617 54.4133 512.991 54.84C513.417 55.2133 513.631 55.6933 513.631 56.28V63.4C513.631 63.9867 513.417 64.4667 512.991 64.84C512.617 65.2133 512.137 65.4 511.551 65.4H502.031ZM535.403 113.8C532.523 113.8 529.936 113.267 527.643 112.2C525.403 111.08 523.616 109.587 522.283 107.72C520.95 105.853 520.283 103.747 520.283 101.4C520.283 97.6133 521.83 94.6267 524.923 92.44C528.016 90.2 532.123 88.68 537.243 87.88L547.243 86.36V85.24C547.243 83.32 546.843 81.8533 546.043 80.84C545.243 79.8267 543.776 79.32 541.643 79.32C540.15 79.32 538.923 79.6133 537.963 80.2C537.056 80.7867 536.336 81.5867 535.803 82.6C535.323 83.2933 534.656 83.64 533.803 83.64H524.843C524.256 83.64 523.803 83.48 523.483 83.16C523.163 82.7867 523.03 82.36 523.083 81.88C523.083 80.92 523.43 79.8267 524.123 78.6C524.87 77.32 525.99 76.0667 527.483 74.84C528.976 73.6133 530.896 72.6 533.243 71.8C535.59 71 538.416 70.6 541.723 70.6C545.19 70.6 548.15 71 550.603 71.8C553.056 72.6 555.03 73.72 556.523 75.16C558.07 76.6 559.216 78.3067 559.963 80.28C560.71 82.2 561.083 84.3333 561.083 86.68V111C561.083 111.587 560.87 112.067 560.443 112.44C560.07 112.813 559.616 113 559.083 113H549.803C549.216 113 548.736 112.813 548.363 112.44C547.99 112.067 547.803 111.587 547.803 111V108.2C547.11 109.213 546.176 110.147 545.003 111C543.83 111.853 542.443 112.52 540.843 113C539.296 113.533 537.483 113.8 535.403 113.8ZM539.163 104.68C540.71 104.68 542.096 104.36 543.323 103.72C544.603 103.027 545.59 101.987 546.283 100.6C547.03 99.16 547.403 97.3733 547.403 95.24V94.12L540.603 95.32C538.096 95.7467 536.256 96.4133 535.083 97.32C533.963 98.1733 533.403 99.1867 533.403 100.36C533.403 101.267 533.67 102.04 534.203 102.68C534.736 103.32 535.43 103.827 536.283 104.2C537.136 104.52 538.096 104.68 539.163 104.68Z" fill="white"/>
<g filter="url(#filter0_bdd_1_19)">
<rect x="286.828" y="9" width="239.881" height="146.976" rx="25" transform="rotate(1.49228 286.828 9)" fill="white" fill-opacity="0.05" shape-rendering="crispEdges"/>
</g>
</g>
<defs>
<filter id="filter0_bdd_1_19" x="278.642" y="0.642578" width="252.343" height="168.888" filterUnits="userSpaceOnUse" color-interpolation-filters="sRGB">
<feFlood flood-opacity="0" result="BackgroundImageFix"/>
<feGaussianBlur in="BackgroundImageFix" stdDeviation="2"/>
<feComposite in2="SourceAlpha" operator="in" result="effect1_backgroundBlur_1_19"/>
<feColorMatrix in="SourceAlpha" type="matrix" values="0 0 0 0 0 0 0 0 0 0 0 0 0 0 0 0 0 0 127 0" result="hardAlpha"/>
<feOffset dy="-4"/>
<feGaussianBlur stdDeviation="2.5"/>
<feComposite in2="hardAlpha" operator="out"/>
<feColorMatrix type="matrix" values="0 0 0 0 0.333333 0 0 0 0 0.333333 0 0 0 0 0.333333 0 0 0 0.1 0"/>
<feBlend mode="normal" in2="effect1_backgroundBlur_1_19" result="effect2_dropShadow_1_19"/>
<feColorMatrix in="SourceAlpha" type="matrix" values="0 0 0 0 0 0 0 0 0 0 0 0 0 0 0 0 0 0 127 0" result="hardAlpha"/>
<feOffset dy="4"/>
<feGaussianBlur stdDeviation="2"/>
<feComposite in2="hardAlpha" operator="out"/>
<feColorMatrix type="matrix" values="0 0 0 0 0 0 0 0 0 0 0 0 0 0 0 0 0 0 0.25 0"/>
<feBlend mode="normal" in2="effect2_dropShadow_1_19" result="effect3_dropShadow_1_19"/>
<feBlend mode="normal" in="SourceGraphic" in2="effect3_dropShadow_1_19" result="shape"/>
</filter>
</defs>
</svg>
