<svg width="392" height="178" viewBox="0 0 392 178" fill="none" xmlns="http://www.w3.org/2000/svg">
<path d="M14.25 140C13.15 140 12.25 139.65 11.55 138.95C10.85 138.25 10.5 137.35 10.5 136.25V38.75C10.5 37.65 10.85 36.75 11.55 36.05C12.25 35.35 13.15 35 14.25 35H34.05C35.05 35 35.9 35.35 36.6 36.05C37.4 36.75 37.8 37.65 37.8 38.75V117.35H83.1C84.2 117.35 85.1 117.75 85.8 118.55C86.6 119.25 87 120.15 87 121.25V136.25C87 137.35 86.6 138.25 85.8 138.95C85.1 139.65 84.2 140 83.1 140H14.25ZM113.797 140C112.297 140 111.197 139.65 110.497 138.95C109.797 138.15 109.197 137.25 108.697 136.25L80.3473 66.65C80.1473 66.25 80.0473 65.8 80.0473 65.3C80.0473 64.4 80.3473 63.65 80.9473 63.05C81.6473 62.35 82.4973 62 83.4973 62H100.447C101.747 62 102.747 62.35 103.447 63.05C104.147 63.75 104.597 64.45 104.797 65.15L121.747 111.2L138.847 65.15C139.047 64.45 139.497 63.75 140.197 63.05C140.897 62.35 141.897 62 143.197 62H160.147C161.047 62 161.847 62.35 162.547 63.05C163.247 63.65 163.597 64.4 163.597 65.3C163.597 65.8 163.497 66.25 163.297 66.65L134.947 136.25C134.547 137.25 133.947 138.15 133.147 138.95C132.447 139.65 131.297 140 129.697 140H113.797ZM179.006 140C177.906 140 177.006 139.65 176.306 138.95C175.606 138.25 175.256 137.35 175.256 136.25V37.25C175.256 36.15 175.606 35.25 176.306 34.55C177.006 33.85 177.906 33.5 179.006 33.5H196.706C197.806 33.5 198.706 33.85 199.406 34.55C200.106 35.25 200.456 36.15 200.456 37.25V136.25C200.456 137.35 200.106 138.25 199.406 138.95C198.706 139.65 197.806 140 196.706 140H179.006ZM221.176 140C220.076 140 219.176 139.65 218.476 138.95C217.776 138.25 217.426 137.35 217.426 136.25V117.2C217.426 116.2 217.776 115.35 218.476 114.65C219.176 113.85 220.076 113.45 221.176 113.45H240.076C241.176 113.45 242.076 113.85 242.776 114.65C243.576 115.35 243.976 116.2 243.976 117.2V136.25C243.976 137.35 243.576 138.25 242.776 138.95C242.076 139.65 241.176 140 240.076 140H221.176ZM283.689 140C282.689 140 281.789 139.65 280.989 138.95C280.289 138.25 279.939 137.35 279.939 136.25V64.85L259.389 80.6C258.489 81.3 257.539 81.55 256.539 81.35C255.639 81.15 254.839 80.6 254.139 79.7L245.289 68.15C244.689 67.25 244.439 66.3 244.539 65.3C244.739 64.2 245.339 63.35 246.339 62.75L280.839 36.05C281.439 35.65 281.989 35.4 282.489 35.3C283.089 35.1 283.739 35 284.439 35H303.189C304.189 35 305.039 35.35 305.739 36.05C306.539 36.75 306.939 37.65 306.939 38.75V136.25C306.939 137.35 306.539 138.25 305.739 138.95C305.039 139.65 304.189 140 303.189 140H283.689ZM358.249 140C357.249 140 356.349 139.65 355.549 138.95C354.849 138.25 354.499 137.35 354.499 136.25V64.85L333.949 80.6C333.049 81.3 332.099 81.55 331.099 81.35C330.199 81.15 329.399 80.6 328.699 79.7L319.849 68.15C319.249 67.25 318.999 66.3 319.099 65.3C319.299 64.2 319.899 63.35 320.899 62.75L355.399 36.05C355.999 35.65 356.549 35.4 357.049 35.3C357.649 35.1 358.299 35 358.999 35H377.749C378.749 35 379.599 35.35 380.299 36.05C381.099 36.75 381.499 37.65 381.499 38.75V136.25C381.499 137.35 381.099 138.25 380.299 138.95C379.599 139.65 378.749 140 377.749 140H358.249Z" fill="#910000"/>
</svg>
