<svg width="254" height="254" viewBox="0 0 254 254" fill="none" xmlns="http://www.w3.org/2000/svg">
<path opacity="0.1" d="M99.8126 251.724C92.6601 255.191 84.045 252.477 80.1716 245.536L67.7604 223.296C65.6577 219.528 62.0343 216.848 57.8158 215.941L32.7535 210.55C25.2321 208.933 20.1539 201.887 20.9981 194.24L23.8797 168.136C24.3221 164.128 23.1327 160.112 20.5796 156.991L3.80672 136.491C-0.729958 130.947 -0.712399 122.968 3.84863 117.443L20.5334 97.233C23.1148 94.1062 24.3204 90.0676 23.8755 86.0374L20.9981 59.9719C20.1539 52.3249 25.2321 45.279 32.7536 43.6614L57.7871 38.2774C62.0222 37.3666 65.6567 34.6693 67.7553 30.8797L80.1895 8.42695C84.0494 1.45705 92.6848 -1.27916 99.8542 2.19597L120.41 12.1595C124.542 14.1622 129.363 14.1622 133.495 12.1595L154.122 2.16155C161.262 -1.29954 169.863 1.39945 173.746 8.31971L186.445 30.9528C188.547 34.699 192.154 37.3644 196.352 38.2733L221.173 43.6472C228.685 45.2735 233.752 52.3142 232.909 59.9534L230.029 86.0374C229.584 90.0676 230.79 94.1062 233.371 97.233L250.056 117.443C254.617 122.968 254.635 130.947 250.098 136.491L233.325 156.991C230.772 160.112 229.583 164.128 230.025 168.136L232.909 194.258C233.752 201.898 228.685 208.938 221.173 210.565L196.323 215.945C192.142 216.85 188.546 219.498 186.44 223.222L173.763 245.643C169.867 252.534 161.287 255.211 154.163 251.759L133.495 241.741C129.363 239.738 124.542 239.738 120.41 241.741L99.8126 251.724ZM88.111 222.799C92.1568 228.854 99.9668 231.128 106.631 228.192L120.987 221.867C124.792 220.19 129.122 220.168 132.944 221.806L147.999 228.258C154.744 231.149 162.59 228.735 166.544 222.553L176.499 206.987C178.514 203.837 181.633 201.553 185.245 200.582L202.197 196.029C209.271 194.129 213.938 187.397 213.236 180.105L211.484 161.902C211.098 157.893 212.341 153.897 214.932 150.814L226.964 136.498C231.615 130.964 231.657 122.901 227.065 117.318L214.822 102.433C212.298 99.3652 211.095 95.4214 211.475 91.4671L213.216 73.3877C213.927 66.0014 209.13 59.2053 201.932 57.4008L185.297 53.2302C181.653 52.3166 178.484 50.0688 176.418 46.9313L166.044 31.1817C162.029 25.0851 154.207 22.7647 147.517 25.6851L132.898 32.0659C129.104 33.7221 124.794 33.7365 120.989 32.1058L105.906 25.6417C99.1609 22.751 91.3146 25.1649 87.3607 31.3471L77.4838 46.7906C75.4221 50.0141 72.2065 52.3279 68.4949 53.2585L51.9724 57.4008C44.7747 59.2053 39.9781 66.0014 40.6891 73.3877L42.4294 91.4671C42.81 95.4214 41.6065 99.3652 39.083 102.433L26.8394 117.318C22.2475 122.901 22.2901 130.964 26.9408 136.498L38.9816 150.825C41.5676 153.902 42.8105 157.888 42.4317 161.889L40.6669 180.531C39.9684 187.909 44.7634 194.692 51.9524 196.494L68.6632 200.684C72.274 201.589 75.4192 203.805 77.4874 206.9L88.111 222.799ZM110.553 164.671C112.52 166.717 115.791 166.718 117.759 164.675L178.23 101.883C180.152 99.888 180.085 96.7107 178.081 94.798L171.918 88.9156C169.929 87.0165 166.779 87.0811 164.868 89.0602L114.155 141.604L89.4531 114.637C87.5135 112.519 84.193 112.467 82.1875 114.522L75.5726 121.301C73.6875 123.233 73.676 126.313 75.5468 128.259L110.553 164.671Z" fill="#141414"/>
</svg>
